<svg width="60" height="62" viewBox="0 0 60 62" fill="none" xmlns="http://www.w3.org/2000/svg">
<g clip-path="url(#clip0_2103_9603)">
<g clip-path="url(#clip1_2103_9603)">
<path fill-rule="evenodd" clip-rule="evenodd" d="M40.906 30.9722L40.4395 35.8508C40.4308 35.9196 40.4258 35.9897 40.4258 36.0584C40.4258 36.8664 41.0899 37.5304 41.8965 37.5304H45.2907C46.0986 37.5304 46.7627 36.8664 46.7627 36.0584C46.7627 35.9897 46.7577 35.9196 46.7477 35.8508L46.0599 31.0434C45.1844 31.3136 41.7815 31.2423 40.906 30.9722Z" fill="#FDF0EA"/>
<path fill-rule="evenodd" clip-rule="evenodd" d="M43.5928 10.3745C42.2147 10.3808 40.8527 10.6972 39.5871 11.305L35.6201 28.6899C37.5436 31.4038 40.4838 32.9958 43.5928 33.0058C49.1794 33.0058 53.7767 27.897 53.7767 21.6902C53.7767 15.4833 49.1794 10.3745 43.5928 10.3745Z" fill="white"/>
<path fill-rule="evenodd" clip-rule="evenodd" d="M27.2065 28.7986L26.5299 33.5309C26.5187 33.606 26.5137 33.6835 26.5137 33.7598C26.5137 34.6515 27.2478 35.3869 28.1395 35.3869H31.8914C32.7831 35.3869 33.5172 34.6515 33.5172 33.7598C33.5172 33.6835 33.5122 33.606 33.5009 33.5309L32.8594 29.0412C31.8914 29.3401 28.1745 29.0975 27.2065 28.7986Z" fill="white"/>
<path fill-rule="evenodd" clip-rule="evenodd" d="M13.8491 31.8901L13.2826 35.8509C13.2726 35.9197 13.2676 35.9897 13.2676 36.0585C13.2676 36.8664 13.9317 37.5305 14.7396 37.5305H18.1338C18.9404 37.5305 19.6045 36.8664 19.6045 36.0585C19.6045 35.9897 19.5995 35.9197 19.5907 35.8509L19.0517 32.0865C18.1763 32.3566 17.1095 31.6313 16.2003 31.635C15.2923 31.6313 14.7246 32.1603 13.8491 31.8901Z" fill="#FDF0EA"/>
<path fill-rule="evenodd" clip-rule="evenodd" d="M16.4368 10.3745C10.8502 10.3745 6.25293 15.4821 6.25293 21.6889C6.25293 27.8958 10.8502 33.0058 16.4368 33.0058C19.5508 33.0046 22.4986 31.4175 24.4283 28.7012L20.4563 11.2975C19.1869 10.6897 17.8187 10.3758 16.4368 10.3745Z" fill="white"/>
<path fill-rule="evenodd" clip-rule="evenodd" d="M41.271 17.8783C41.271 24.7392 36.1897 30.3846 30.0154 30.3846C23.8411 30.3846 18.7598 24.7392 18.7598 17.8783C18.7598 11.0174 23.8411 5.37207 30.0154 5.37207C36.1897 5.37207 41.271 11.0174 41.271 17.8783Z" fill="#FDF0EA"/>
<path d="M30.0144 4.12134C25.8574 4.12134 22.2105 6.34495 19.9432 9.73415C18.8138 9.33395 17.6295 9.12509 16.4364 9.12384C10.0607 9.12384 5.00195 14.8317 5.00195 21.6889C5.00195 23.5473 5.36964 25.3169 6.03247 26.9115C6.2976 27.548 7.02921 27.8494 7.66703 27.5855C8.3036 27.3204 8.60625 26.5888 8.34112 25.951C7.8046 24.6603 7.5032 23.2171 7.5032 21.6889C7.5032 16.0485 11.5627 11.6251 16.4364 11.6251C17.2093 11.6263 17.9759 11.7501 18.7225 11.974C17.9434 13.7699 17.5082 15.7734 17.5082 17.8782C17.5082 22.3892 19.5054 26.4387 22.6082 28.9575C20.9437 30.7559 18.7376 31.7551 16.4364 31.7551C15.0307 31.7551 13.71 31.3925 12.5232 30.7384C11.9179 30.4045 11.1563 30.6246 10.8224 31.2299C10.4884 31.8352 10.7098 32.5968 11.3163 32.9295C11.6553 33.1158 12.0054 33.2834 12.3644 33.4335L12.0442 35.6746C11.8141 37.2916 13.1047 38.7811 14.7381 38.7824H15.3446C16.8228 43.1433 16.0762 45.2681 15.2458 47.8244C14.3991 50.4357 13.4662 53.5385 15.2658 58.3384C15.5084 58.9837 16.2288 59.3102 16.8754 59.0688C17.5219 58.8262 17.8509 58.1058 17.6082 57.458C16.0137 53.2046 16.7753 51.2174 17.6258 48.5948C18.4124 46.1673 19.2641 43.2246 17.9697 38.7824H18.1335C19.7668 38.7811 21.0575 37.2916 20.8273 35.6746L20.5047 33.426C22.098 32.7581 23.5375 31.7039 24.7193 30.3407C25.0257 30.4983 25.3396 30.6396 25.6598 30.7709L25.2908 33.3522V33.3547C25.047 35.0643 26.4114 36.6363 28.1385 36.6376H28.9051C30.5897 41.5463 29.7468 43.9587 28.8251 46.8039C27.8884 49.6891 26.8666 53.0633 28.8439 58.3384C29.0865 58.98 29.8118 59.3089 30.4547 59.0688C31.0962 58.8262 31.4251 58.1008 31.185 57.458C29.4104 52.7294 30.2646 50.4745 31.2038 47.5755C32.0842 44.8617 33.0322 41.6163 31.534 36.6376H31.8904C33.6175 36.6363 34.9819 35.0643 34.7381 33.3547V33.3522L34.3666 30.7634C34.6905 30.6308 35.0057 30.4807 35.3146 30.3207C36.4914 31.6876 37.9371 32.7306 39.5254 33.4035L39.2015 35.6746C38.9714 37.2916 40.2621 38.7811 41.8954 38.7824H42.5032C43.5562 41.8902 43.4474 43.8537 43.0334 45.6558C42.6082 47.5105 41.7441 49.2539 41.4527 51.6113C41.3689 52.2916 41.8591 52.9207 42.5407 53.0058C43.221 53.0895 43.8501 52.5993 43.9351 51.919C44.1665 50.0443 44.9682 48.4097 45.4709 46.2149C45.9224 44.2476 46.0337 41.8739 45.127 38.7824H45.2908C46.9241 38.7811 48.2148 37.2916 47.9847 35.6746L47.662 33.4235C51.9904 31.6063 55.0282 26.9978 55.0269 21.6889C55.0269 14.8317 49.9682 9.12384 43.5925 9.12384H43.5887C42.3931 9.12885 41.2075 9.34145 40.0782 9.74665C37.8108 6.35621 34.1728 4.12134 30.0144 4.12134ZM30.0144 6.62259C35.4797 6.62259 40.0194 11.5801 40.0194 17.8782C40.0194 24.1763 35.4797 29.1338 30.0144 29.1338C24.5492 29.1338 20.0094 24.1763 20.0094 17.8782C20.0094 11.5801 24.5492 6.62259 30.0144 6.62259ZM43.5925 11.6251C48.4662 11.6251 52.5257 16.0485 52.5257 21.6889C52.5269 27.3279 48.4699 31.7514 43.5975 31.7551C41.2938 31.7476 39.0865 30.7396 37.4256 28.9312C40.5222 26.415 42.5207 22.383 42.5207 17.8782C42.5207 15.7721 42.0742 13.7736 41.2951 11.9765C42.043 11.7476 42.8158 11.6288 43.5925 11.6251ZM28.0872 31.4687C28.715 31.5763 29.3579 31.6351 30.0144 31.6351C30.671 31.6351 31.3138 31.5775 31.9417 31.4712L32.2618 33.7061C32.2968 33.955 32.1418 34.1363 31.8904 34.1363H28.1385C27.8884 34.1363 27.7333 33.9562 27.7671 33.7086V33.7061L28.0872 31.4687ZM41.9542 34.1051C42.4919 34.1926 43.0359 34.2539 43.5887 34.2564H43.5925C44.1528 34.2564 44.698 34.1964 45.2345 34.1113L45.5084 36.0273C45.5297 36.1823 45.4459 36.2811 45.2883 36.2811H41.8954C41.7391 36.2811 41.6565 36.1836 41.6778 36.0298V36.0273L41.9542 34.1051ZM18.0772 34.1188L18.3511 36.0273C18.3736 36.1823 18.2911 36.2811 18.1335 36.2811H14.7406C14.5842 36.2811 14.5004 36.1836 14.5204 36.0298V36.0273L14.7943 34.1213C15.3309 34.2064 15.8786 34.2564 16.4364 34.2564C16.9904 34.2564 17.537 34.2051 18.0772 34.1188ZM43.0022 54.1876C42.8721 54.1726 42.7396 54.1788 42.6107 54.2051C42.0317 54.3239 41.6127 54.8392 41.6127 55.4295C41.6127 55.5145 41.6215 55.5995 41.639 55.6833C41.8091 56.5088 42.0642 57.3892 42.4206 58.3384C42.6032 58.8249 43.071 59.1488 43.5912 59.1488C43.7425 59.1488 43.8914 59.1213 44.0327 59.0688C44.6743 58.8262 45.0032 58.1008 44.7631 57.458C44.4479 56.6176 44.2303 55.8634 44.089 55.1768C43.9789 54.6478 43.5387 54.2476 43.0022 54.1876Z" fill="#EB662B"/>
<path fill-rule="evenodd" clip-rule="evenodd" d="M10.2402 29.4221C10.2402 30.1121 9.68023 30.6721 8.99023 30.6721C8.30023 30.6721 7.74023 30.1121 7.74023 29.4221C7.74023 28.7321 8.30023 28.1721 8.99023 28.1721C9.68023 28.1721 10.2402 28.7321 10.2402 29.4221Z" fill="#EB662B"/>
</g>
</g>
<defs>
<clipPath id="clip0_2103_9603">
<rect width="60" height="61" fill="white" transform="translate(0 0.720215)"/>
</clipPath>
<clipPath id="clip1_2103_9603">
<rect width="60" height="61" fill="white" transform="translate(0 0.720215)"/>
</clipPath>
</defs>
</svg>
