<svg width="60" height="62" viewBox="0 0 60 62" fill="none" xmlns="http://www.w3.org/2000/svg">
<g clip-path="url(#clip0_2103_9593)">
<g clip-path="url(#clip1_2103_9593)">
<path d="M29.9702 57.6283C44.4749 57.6283 56.2333 45.8699 56.2333 31.3652C56.2333 16.8604 44.4749 5.10205 29.9702 5.10205C15.4654 5.10205 3.70703 16.8604 3.70703 31.3652C3.70703 45.8699 15.4654 57.6283 29.9702 57.6283Z" fill="white"/>
<path d="M29.9698 32.6157C35.4954 32.6157 39.9748 28.1363 39.9748 22.6107C39.9748 17.0851 35.4954 12.6057 29.9698 12.6057C24.4442 12.6057 19.9648 17.0851 19.9648 22.6107C19.9648 28.1363 24.4442 32.6157 29.9698 32.6157Z" fill="#FDF0EA"/>
<path fill-rule="evenodd" clip-rule="evenodd" d="M50.3852 49.2788C45.9205 52.7856 36.487 58.0332 30.3752 58.0332C24.2634 58.0332 14.83 52.7856 10.3652 49.2788C11.2694 41.1835 21.951 38.0232 30.3752 38.0232C38.7994 38.0232 49.481 41.1835 50.3852 49.2788Z" fill="#FDF0EA"/>
<path d="M4.2196 37.8791C4.90988 37.8791 5.46947 37.3195 5.46947 36.6292C5.46947 35.939 4.90988 35.3794 4.2196 35.3794C3.52932 35.3794 2.96973 35.939 2.96973 36.6292C2.96973 37.3195 3.52932 37.8791 4.2196 37.8791Z" fill="#EB662B"/>
<path fill-rule="evenodd" clip-rule="evenodd" d="M8.66425 48.6635C6.81707 46.2948 5.35006 43.6173 4.35332 40.7208C4.1282 40.068 4.47587 39.3564 5.1287 39.1313C5.78027 38.9074 6.49312 39.2538 6.71824 39.9066C7.45736 42.0552 8.48167 44.0712 9.7448 45.9096C14.8123 40.3031 22.161 36.7726 30.3751 36.7726C38.5892 36.7726 45.9378 40.3031 51.0054 45.9096C53.7692 41.8864 55.3876 37.0165 55.3876 31.7701C55.3876 27.5592 54.3445 23.5897 52.5036 20.1067C52.1809 19.4964 52.4149 18.7386 53.0252 18.4159C53.6355 18.0945 54.3921 18.3271 54.7147 18.9374C56.7407 22.7693 57.8888 27.1365 57.8888 31.7701C57.8888 38.1383 55.7215 44.0037 52.0834 48.6673C52.0709 48.6848 52.0572 48.7023 52.0434 48.7186C47.0059 55.1493 39.1695 59.2838 30.3751 59.2838C21.5819 59.2838 13.7481 55.1505 8.70928 48.7223C8.69427 48.7035 8.678 48.6835 8.66425 48.6635ZM49.4571 47.9344C44.8386 42.6318 38.0189 39.2738 30.3751 39.2738C22.7313 39.2738 15.9116 42.6318 11.293 47.9344C15.8828 53.3459 22.7313 56.7826 30.3751 56.7826C38.0189 56.7826 44.8673 53.3459 49.4571 47.9344ZM5.39006 32.9619C5.42257 33.651 4.88985 34.2376 4.19951 34.2701C3.51041 34.3026 2.92389 33.7686 2.89262 33.0795C2.87136 32.6455 2.86133 32.2091 2.86133 31.7701C2.86133 16.585 15.19 4.25635 30.3751 4.25635C39.5284 4.25635 47.645 8.7361 52.6475 15.6208C53.0527 16.1798 52.9289 16.9627 52.3711 17.3679C51.8121 17.7731 51.0291 17.6493 50.6239 17.0915C46.0754 10.8309 38.698 6.7576 30.3751 6.7576C16.5707 6.7576 5.36258 17.9657 5.36258 31.7701C5.36258 32.169 5.37255 32.5667 5.39006 32.9619ZM30.3751 11.7601C36.5869 11.7601 41.6307 16.8039 41.6307 23.0157C41.6307 29.2276 36.5869 34.2713 30.3751 34.2713C24.1632 34.2713 19.1195 29.2276 19.1195 23.0157C19.1195 16.8039 24.1632 11.7601 30.3751 11.7601ZM30.3751 14.2613C25.5439 14.2613 21.6207 18.1845 21.6207 23.0157C21.6207 27.8469 25.5439 31.7701 30.3751 31.7701C35.2062 31.7701 39.1295 27.8469 39.1295 23.0157C39.1295 18.1845 35.2062 14.2613 30.3751 14.2613Z" fill="#EB662B"/>
</g>
</g>
<defs>
<clipPath id="clip0_2103_9593">
<rect width="60" height="61" fill="white" transform="translate(0 0.720215)"/>
</clipPath>
<clipPath id="clip1_2103_9593">
<rect width="60" height="61" fill="white" transform="translate(0 0.720215)"/>
</clipPath>
</defs>
</svg>
