<svg width="60" height="62" viewBox="0 0 60 62" fill="none" xmlns="http://www.w3.org/2000/svg">
<g clip-path="url(#clip0_2103_9573)">
<g clip-path="url(#clip1_2103_9573)">
<path fill-rule="evenodd" clip-rule="evenodd" d="M26.5992 49.9104C16.109 48.1345 8.10742 38.9937 8.10742 27.9994C8.10742 15.7345 18.0649 5.7771 30.3298 5.7771C42.5947 5.7771 52.5521 15.7345 52.5521 27.9994C52.5521 38.9937 44.5506 48.1345 34.0604 49.9104L30.3298 58.3033L26.5992 49.9104ZM30.3298 19.9191C34.7895 19.9191 38.4113 23.5397 38.4113 27.9994C38.4113 32.4591 34.7895 36.081 30.3298 36.081C25.8701 36.081 22.2483 32.4591 22.2483 27.9994C22.2483 23.5397 25.8701 19.9191 30.3298 19.9191Z" fill="#FDF0EA"/>
<path fill-rule="evenodd" clip-rule="evenodd" d="M35.8828 23.8718C36.6898 24.9934 37.1661 26.37 37.1661 27.8569C37.1661 31.6282 34.1033 34.691 30.3321 34.691C26.5608 34.691 23.498 31.6282 23.498 27.8569C23.498 24.0857 26.5608 21.0229 30.3321 21.0229C31.439 21.0229 32.4849 21.2868 33.4095 21.755C34.0254 22.0666 34.7795 21.8197 35.0912 21.203C35.4028 20.5871 35.1559 19.8337 34.5392 19.5221C33.275 18.8819 31.8454 18.521 30.3321 18.521C25.179 18.521 20.9961 22.7039 20.9961 27.8569C20.9961 33.01 25.179 37.1929 30.3321 37.1929C35.4851 37.1929 39.668 33.01 39.668 27.8569C39.668 25.8247 39.0176 23.9431 37.9136 22.4099C37.5101 21.849 36.7273 21.7219 36.1672 22.1254C35.6064 22.5289 35.4793 23.311 35.8828 23.8718Z" fill="#EB662B"/>
<path fill-rule="evenodd" clip-rule="evenodd" d="M12.3678 38.8715C10.3 35.6223 9.10248 31.7673 9.10248 27.6357C9.10248 16.0667 18.4966 6.67255 30.0656 6.67255C41.6346 6.67255 51.0288 16.0667 51.0288 27.6357C51.0288 38.0072 43.4824 46.6299 33.5854 48.304C33.1735 48.3746 32.8221 48.6453 32.6525 49.0289L30.0656 54.8488L27.4788 49.0289C27.3092 48.6453 26.9578 48.3746 26.5458 48.304C23.1997 47.7385 20.1243 46.3775 17.5173 44.4248C16.966 44.0108 16.1804 44.1239 15.7665 44.6752C15.3545 45.2285 15.4656 46.012 16.0189 46.426C18.7632 48.4817 21.974 49.9518 25.4635 50.6464C25.4615 50.6464 28.9227 58.4332 28.9227 58.4332C29.1246 58.8855 29.5709 59.1763 30.0656 59.1763C30.5604 59.1763 31.0067 58.8855 31.2086 58.4332L34.6698 50.6464C45.4169 48.5059 53.5287 39.0108 53.5287 27.6357C53.5287 14.6854 43.0159 4.17261 30.0656 4.17261C17.1154 4.17261 6.60254 14.6854 6.60254 27.6357C6.60254 32.2621 7.94537 36.5775 10.2596 40.2144C10.6311 40.796 11.4046 40.9676 11.9862 40.5981C12.5677 40.2265 12.7394 39.4531 12.3678 38.8715Z" fill="#EB662B"/>
<path d="M13.7584 43.9671C14.4491 43.9671 15.0091 43.4071 15.0091 42.7164C15.0091 42.0257 14.4491 41.4658 13.7584 41.4658C13.0677 41.4658 12.5078 42.0257 12.5078 42.7164C12.5078 43.4071 13.0677 43.9671 13.7584 43.9671Z" fill="#EB662B"/>
</g>
</g>
<defs>
<clipPath id="clip0_2103_9573">
<rect width="60" height="61" fill="white" transform="translate(0 0.720215)"/>
</clipPath>
<clipPath id="clip1_2103_9573">
<rect width="60" height="61" fill="white" transform="translate(0 0.720215)"/>
</clipPath>
</defs>
</svg>
