<svg width="60" height="62" viewBox="0 0 60 62" fill="none" xmlns="http://www.w3.org/2000/svg">
<g clip-path="url(#clip0_2103_9582)">
<g clip-path="url(#clip1_2103_9582)">
<path fill-rule="evenodd" clip-rule="evenodd" d="M9.2927 55.6956C6.29432 55.1879 4.00684 52.5753 4.00684 49.4326C4.00684 45.9266 6.85333 43.0801 10.3593 43.0801C13.8653 43.0801 16.7118 45.9266 16.7118 49.4326C16.7118 52.5753 14.4243 55.1879 11.426 55.6956L10.3593 58.0951L9.2927 55.6956Z" fill="#FDF0EA"/>
<path fill-rule="evenodd" clip-rule="evenodd" d="M49.1004 18.1956C46.102 17.6879 43.8145 15.0753 43.8145 11.9326C43.8145 8.42658 46.661 5.58008 50.167 5.58008C53.673 5.58008 56.5195 8.42658 56.5195 11.9326C56.5195 15.0753 54.2321 17.6879 51.2337 18.1956L50.167 20.5951L49.1004 18.1956Z" fill="#FDF0EA"/>
<path fill-rule="evenodd" clip-rule="evenodd" d="M8.40629 56.7824L9.21536 58.6032C9.41633 59.0548 9.86448 59.3465 10.3588 59.3465C10.8532 59.3465 11.3013 59.0548 11.5023 58.6032L12.3113 56.7824C15.5627 55.9202 17.9628 52.9547 17.9628 49.4325C17.9628 45.2358 14.5555 41.8286 10.3588 41.8286C6.16213 41.8286 2.75488 45.2358 2.75488 49.4325C2.75488 52.9541 5.15496 55.9196 8.40629 56.7824ZM10.3588 55.0418C10.1717 54.7357 9.85987 54.5226 9.50124 54.462C7.09307 54.0543 5.25776 51.9562 5.25776 49.4325C5.25776 46.6172 7.54351 44.3315 10.3588 44.3315C13.1741 44.3315 15.4599 46.6172 15.4599 49.4325C15.4599 51.9562 13.6246 54.0543 11.2164 54.462C10.8578 54.5226 10.5459 54.7357 10.3588 55.0418Z" fill="#EB662B"/>
<path fill-rule="evenodd" clip-rule="evenodd" d="M50.1674 17.5418C49.9803 17.2357 49.6685 17.0226 49.3098 16.962C46.9017 16.5543 45.0664 14.4562 45.0664 11.9325C45.0664 9.11723 47.3521 6.83148 50.1674 6.83148C50.7605 6.83148 51.3299 6.93256 51.8601 7.11909C52.5115 7.34836 53.2264 7.0059 53.4557 6.35448C53.685 5.70306 53.3425 4.98811 52.6911 4.75826C51.9011 4.48048 51.0516 4.32861 50.1674 4.32861C45.9707 4.32861 42.5635 7.73585 42.5635 11.9325C42.5635 15.4547 44.9641 18.4202 48.2155 19.283L49.024 21.1032C49.2249 21.5548 49.6731 21.8465 50.1674 21.8465C50.6618 21.8465 51.1099 21.5548 51.3109 21.1032L52.12 19.2824C55.3713 18.4202 57.7714 15.4547 57.7714 11.9325C57.7714 10.3814 57.3059 8.93878 56.5072 7.73527C56.1255 7.16008 55.3482 7.00243 54.773 7.38473C54.1978 7.76646 54.0401 8.54319 54.4219 9.11896C54.9572 9.92573 55.2685 10.893 55.2685 11.9325C55.2685 14.4562 53.4332 16.5543 51.025 16.962C50.6664 17.0226 50.3545 17.2357 50.1674 17.5418Z" fill="#EB662B"/>
<path fill-rule="evenodd" clip-rule="evenodd" d="M19.1645 59.1489H21.6658C22.3561 59.1489 22.9164 58.5886 22.9164 57.8983C22.9164 57.2079 22.3561 56.6476 21.6658 56.6476H19.1645C18.4742 56.6476 17.9139 57.2079 17.9139 57.8983C17.9139 58.5886 18.4742 59.1489 19.1645 59.1489ZM29.1695 59.1489H38.5492C45.1112 59.1489 50.4302 53.83 50.4302 47.268C50.4302 44.1164 49.1783 41.0949 46.9509 38.8663C44.7223 36.6389 41.7008 35.387 38.5492 35.387C32.5937 35.387 25.2838 35.387 19.7898 35.387C17.9652 35.387 16.2156 34.6629 14.9262 33.3723C13.6355 32.0829 12.9114 30.3332 12.9114 28.5086C12.9114 26.6839 13.6355 24.9343 14.9262 23.6449C16.2156 22.3543 17.9652 21.6301 19.7898 21.6301H21.6658C22.3561 21.6301 22.9164 21.0699 22.9164 20.3795C22.9164 19.6892 22.3561 19.1289 21.6658 19.1289H19.7898C17.3024 19.1289 14.9162 20.1169 13.1578 21.8765C11.3982 23.6349 10.4102 26.0211 10.4102 28.5086C10.4102 30.9961 11.3982 33.3823 13.1578 35.1406C14.9162 36.9003 17.3024 37.8883 19.7898 37.8883H38.5492C41.0367 37.8883 43.4229 38.8763 45.1813 40.6359C46.9409 42.3943 47.9289 44.7805 47.9289 47.268C47.9289 52.448 43.7293 56.6476 38.5492 56.6476H29.1695C28.4792 56.6476 27.9189 57.2079 27.9189 57.8983C27.9189 58.5886 28.4792 59.1489 29.1695 59.1489ZM25.4177 21.6301H41.6758C42.3661 21.6301 42.9264 21.0699 42.9264 20.3795C42.9264 19.6892 42.3661 19.1289 41.6758 19.1289H25.4177C24.7273 19.1289 24.167 19.6892 24.167 20.3795C24.167 21.0699 24.7273 21.6301 25.4177 21.6301Z" fill="#EB662B"/>
<path d="M25.0066 59.145C25.6973 59.145 26.2572 58.5851 26.2572 57.8944C26.2572 57.2037 25.6973 56.6438 25.0066 56.6438C24.3159 56.6438 23.7559 57.2037 23.7559 57.8944C23.7559 58.5851 24.3159 59.145 25.0066 59.145Z" fill="#EB662B"/>
</g>
</g>
<defs>
<clipPath id="clip0_2103_9582">
<rect width="60" height="61" fill="white" transform="translate(0 0.720215)"/>
</clipPath>
<clipPath id="clip1_2103_9582">
<rect width="60" height="61" fill="white" transform="translate(0 0.720215)"/>
</clipPath>
</defs>
</svg>
