<svg width="61" height="61" viewBox="0 0 61 61" fill="none" xmlns="http://www.w3.org/2000/svg">
<g clip-path="url(#clip0_2103_9699)">
<path d="M30.9795 59.4702C46.9958 59.4702 59.9795 46.4865 59.9795 30.4702C59.9795 14.454 46.9958 1.47021 30.9795 1.47021C14.9632 1.47021 1.97949 14.454 1.97949 30.4702C1.97949 46.4865 14.9632 59.4702 30.9795 59.4702Z" stroke="white" stroke-width="2"/>
<mask id="mask0_2103_9699" style="mask-type:luminance" maskUnits="userSpaceOnUse" x="22" y="20" width="21" height="21">
<path d="M42.9795 20.4702H22.9795V40.4702H42.9795V20.4702Z" fill="white"/>
</mask>
<g mask="url(#mask0_2103_9699)">
<path d="M40.3185 28.1624L28.506 20.8809C27.6513 20.3548 26.6181 20.3329 25.742 20.8224C24.8658 21.3118 24.3428 22.2033 24.3428 23.2068V37.7034C24.3428 39.2208 25.5654 40.462 27.0682 40.4702C27.0723 40.4702 27.0764 40.4702 27.0804 40.4702C27.55 40.4702 28.0394 40.323 28.4965 40.0441C28.8642 39.8197 28.9804 39.3398 28.756 38.9722C28.5317 38.6044 28.0517 38.4883 27.6841 38.7126C27.4703 38.843 27.2615 38.9104 27.0766 38.9104C26.5096 38.9073 25.9025 38.4216 25.9025 37.7034V23.2069C25.9025 22.7763 26.1269 22.394 26.5027 22.1841C26.8785 21.9741 27.3217 21.9835 27.6878 22.2089L39.5003 29.4904C39.8554 29.709 40.0586 30.0735 40.0577 30.4904C40.0568 30.9073 39.8522 31.271 39.4952 31.4889L30.9547 36.7181C30.5873 36.943 30.4719 37.4231 30.6968 37.7904C30.9217 38.1578 31.4018 38.2733 31.7691 38.0483L40.3086 32.8197C41.1263 32.3209 41.6155 31.4514 41.6175 30.4936C41.6195 29.5358 41.1337 28.6643 40.3185 28.1624Z" fill="white"/>
</g>
</g>
<defs>
<clipPath id="clip0_2103_9699">
<rect width="60" height="60" fill="white" transform="translate(0.979492 0.470215)"/>
</clipPath>
</defs>
</svg>
